<svg xmlns="http://www.w3.org/2000/svg" xmlns:xlink="http://www.w3.org/1999/xlink" width="192" zoomAndPan="magnify" viewBox="0 0 144 143.999998" height="192" preserveAspectRatio="xMidYMid meet" version="1.0"><defs><g/><clipPath id="4490f1fe5f"><path d="M 31.074219 33.152344 L 112.925781 33.152344 L 112.925781 115.003906 L 31.074219 115.003906 Z M 31.074219 33.152344 " clip-rule="nonzero"/></clipPath><clipPath id="99ae2462cd"><path d="M 72 33.152344 C 49.398438 33.152344 31.074219 51.472656 31.074219 74.078125 C 31.074219 96.679688 49.398438 115.003906 72 115.003906 C 94.601562 115.003906 112.925781 96.679688 112.925781 74.078125 C 112.925781 51.472656 94.601562 33.152344 72 33.152344 " clip-rule="nonzero"/></clipPath><clipPath id="da4febc0ae"><path d="M 35.554688 37.632812 L 108.445312 37.632812 L 108.445312 110.523438 L 35.554688 110.523438 Z M 35.554688 37.632812 " clip-rule="nonzero"/></clipPath><clipPath id="3f8bbb240c"><path d="M 72 37.632812 C 51.871094 37.632812 35.554688 53.949219 35.554688 74.078125 C 35.554688 94.207031 51.871094 110.523438 72 110.523438 C 92.128906 110.523438 108.445312 94.207031 108.445312 74.078125 C 108.445312 53.949219 92.128906 37.632812 72 37.632812 " clip-rule="nonzero"/></clipPath><clipPath id="c7e4b71845"><path d="M 55 28.109375 L 83 28.109375 L 83 57 L 55 57 Z M 55 28.109375 " clip-rule="nonzero"/></clipPath><clipPath id="b32c79b4c8"><path d="M 41.769531 48 L 97 48 L 97 95.609375 L 41.769531 95.609375 Z M 41.769531 48 " clip-rule="nonzero"/></clipPath><clipPath id="1bb7060470"><path d="M 55 28.109375 L 100 28.109375 L 100 64 L 55 64 Z M 55 28.109375 " clip-rule="nonzero"/></clipPath><clipPath id="c63fcfdd43"><path d="M 45 44 L 104.769531 44 L 104.769531 95 L 45 95 Z M 45 44 " clip-rule="nonzero"/></clipPath><clipPath id="5891a3d10e"><path d="M 41.769531 28.109375 L 104.769531 28.109375 L 104.769531 95.609375 L 41.769531 95.609375 Z M 41.769531 28.109375 " clip-rule="nonzero"/></clipPath><clipPath id="ada6b6271c"><path d="M 107 73 L 132 73 L 132 97 L 107 97 Z M 107 73 " clip-rule="nonzero"/></clipPath><clipPath id="a19d8184ee"><path d="M 15.390625 70.824219 L 131.597656 73.996094 L 130.617188 109.980469 L 14.410156 106.808594 Z M 15.390625 70.824219 " clip-rule="nonzero"/></clipPath><clipPath id="2ed169deb9"><path d="M 15.390625 70.824219 L 131.597656 73.996094 L 130.617188 109.980469 L 14.410156 106.808594 Z M 15.390625 70.824219 " clip-rule="nonzero"/></clipPath><clipPath id="921e7e47b8"><path d="M 107 73 L 121 73 L 121 81 L 107 81 Z M 107 73 " clip-rule="nonzero"/></clipPath><clipPath id="1504b42a62"><path d="M 15.390625 70.824219 L 131.597656 73.996094 L 130.617188 109.980469 L 14.410156 106.808594 Z M 15.390625 70.824219 " clip-rule="nonzero"/></clipPath><clipPath id="e3bd1cf2e3"><path d="M 15.390625 70.824219 L 131.597656 73.996094 L 130.617188 109.980469 L 14.410156 106.808594 Z M 15.390625 70.824219 " clip-rule="nonzero"/></clipPath><clipPath id="c10bb1b1dc"><path d="M 14 74 L 40 74 L 40 98 L 14 98 Z M 14 74 " clip-rule="nonzero"/></clipPath><clipPath id="ee61dbcf22"><path d="M 15.390625 70.824219 L 131.597656 73.996094 L 130.617188 109.980469 L 14.410156 106.808594 Z M 15.390625 70.824219 " clip-rule="nonzero"/></clipPath><clipPath id="18d04765a8"><path d="M 15.390625 70.824219 L 131.597656 73.996094 L 130.617188 109.980469 L 14.410156 106.808594 Z M 15.390625 70.824219 " clip-rule="nonzero"/></clipPath><clipPath id="cc4a9ea760"><path d="M 26 78 L 40 78 L 40 85 L 26 85 Z M 26 78 " clip-rule="nonzero"/></clipPath><clipPath id="20d7b68994"><path d="M 15.390625 70.824219 L 131.597656 73.996094 L 130.617188 109.980469 L 14.410156 106.808594 Z M 15.390625 70.824219 " clip-rule="nonzero"/></clipPath><clipPath id="7f9a69b53a"><path d="M 15.390625 70.824219 L 131.597656 73.996094 L 130.617188 109.980469 L 14.410156 106.808594 Z M 15.390625 70.824219 " clip-rule="nonzero"/></clipPath><clipPath id="ef47626372"><path d="M 25 79 L 121 79 L 121 104 L 25 104 Z M 25 79 " clip-rule="nonzero"/></clipPath><clipPath id="6e43ba8425"><path d="M 15.390625 70.824219 L 131.597656 73.996094 L 130.617188 109.980469 L 14.410156 106.808594 Z M 15.390625 70.824219 " clip-rule="nonzero"/></clipPath><clipPath id="ef137f36bc"><path d="M 15.390625 70.824219 L 131.597656 73.996094 L 130.617188 109.980469 L 14.410156 106.808594 Z M 15.390625 70.824219 " clip-rule="nonzero"/></clipPath><clipPath id="be12a43d6c"><path d="M 31.074219 90.898438 L 40.824219 90.898438 L 40.824219 100.648438 L 31.074219 100.648438 Z M 31.074219 90.898438 " clip-rule="nonzero"/></clipPath><clipPath id="166fe03ea9"><path d="M 105 84 L 116 84 L 116 95 L 105 95 Z M 105 84 " clip-rule="nonzero"/></clipPath><clipPath id="3c041db459"><path d="M 105.265625 85.3125 L 114.988281 84.601562 L 115.699219 94.328125 L 105.976562 95.039062 Z M 105.265625 85.3125 " clip-rule="nonzero"/></clipPath><clipPath id="ccc166a183"><path d="M 105.265625 85.3125 L 114.988281 84.601562 L 115.699219 94.328125 L 105.976562 95.039062 Z M 105.265625 85.3125 " clip-rule="nonzero"/></clipPath><clipPath id="2c54783f5b"><path d="M 105.265625 85.3125 L 114.988281 84.601562 L 115.699219 94.328125 L 105.976562 95.039062 Z M 105.265625 85.3125 " clip-rule="nonzero"/></clipPath></defs><g clip-path="url(#4490f1fe5f)"><g clip-path="url(#99ae2462cd)"><path fill="#ffffff" d="M 31.074219 33.152344 L 112.925781 33.152344 L 112.925781 115.003906 L 31.074219 115.003906 Z M 31.074219 33.152344 " fill-opacity="1" fill-rule="nonzero"/></g></g><g clip-path="url(#da4febc0ae)"><g clip-path="url(#3f8bbb240c)"><path fill="#000000" d="M 35.554688 37.632812 L 108.445312 37.632812 L 108.445312 110.523438 L 35.554688 110.523438 Z M 35.554688 37.632812 " fill-opacity="1" fill-rule="nonzero"/></g></g><g clip-path="url(#c7e4b71845)"><path fill="#f3eff9" d="M 75.375 54.863281 C 75.308594 55.328125 74.976562 55.726562 74.5625 55.953125 C 74.144531 56.179688 73.664062 56.261719 73.195312 56.3125 C 72.753906 56.355469 72.273438 56.355469 71.910156 56.101562 C 71.683594 55.941406 71.539062 55.6875 71.429688 55.433594 C 71.109375 54.675781 71.082031 53.769531 71.417969 53.011719 C 71.75 52.253906 72.445312 51.640625 73.261719 51.46875 C 74.078125 51.28125 75.015625 51.652344 75.5625 52.277344 C 75.214844 52.640625 75.683594 54.222656 75.683594 54.222656 C 75.578125 54.304688 75.402344 54.730469 75.375 54.863281 Z M 77.652344 44.769531 C 77.652344 44.769531 78.695312 44.222656 79 43.824219 C 79.882812 42.664062 79.628906 41.039062 79.722656 41.132812 C 79.816406 41.226562 80.378906 42.066406 80.273438 43.210938 C 81.34375 42.160156 80.125 40.574219 80.125 40.574219 C 80.648438 41.027344 81.113281 41.121094 81.183594 41.71875 C 81.972656 40.109375 81.183594 38.871094 81.183594 38.871094 C 81.730469 39.015625 82.4375 38.976562 82.4375 38.976562 C 81.167969 38.578125 79.511719 34.183594 75.375 31.265625 C 71.242188 28.351562 68.515625 28.507812 68.113281 29.242188 C 67.070312 28.921875 57.640625 28.109375 55.578125 37.964844 C 54.28125 44.167969 56.703125 45.992188 57.050781 48.285156 C 57.398438 50.574219 56.597656 51.8125 56.597656 51.8125 L 57.785156 51.546875 C 57.785156 51.546875 57.199219 52.707031 57.210938 53.371094 C 57.210938 53.371094 57.652344 52.453125 58.75 52 C 58.75 52 58.441406 52.839844 58.308594 53.558594 C 58.253906 53.824219 58.363281 54.089844 58.589844 54.238281 C 58.976562 54.503906 59.632812 54.914062 60.246094 55.074219 C 59.753906 53.410156 60.6875 52.597656 60.6875 52.597656 C 60.6875 52.597656 60.597656 54.53125 61.398438 55.183594 C 61.371094 53.96875 61.933594 53.089844 61.933594 53.089844 C 61.933594 53.089844 61.945312 55.074219 63.191406 55.355469 " fill-opacity="1" fill-rule="nonzero"/></g><g clip-path="url(#b32c79b4c8)"><path fill="#171717" d="M 63.871094 54.847656 L 63.164062 55.367188 C 61.921875 55.089844 61.90625 53.105469 61.90625 53.105469 C 61.90625 53.105469 61.332031 53.996094 61.371094 55.195312 C 60.570312 54.542969 60.664062 52.613281 60.664062 52.613281 C 60.664062 52.613281 59.726562 53.425781 60.222656 55.089844 C 59.886719 54.996094 59.539062 54.835938 59.230469 54.664062 C 59.21875 52.8125 60.113281 51.386719 60.339844 51.054688 C 60.367188 51.015625 60.394531 50.988281 60.394531 50.988281 L 61.425781 48.949219 L 63.726562 50.015625 C 63.726562 50.003906 64.007812 53.183594 63.871094 54.847656 Z M 60.222656 57.6875 C 56.691406 58.871094 49.425781 61.800781 46.910156 64.703125 C 44.984375 66.925781 42.042969 82.253906 41.976562 83.464844 C 41.910156 84.675781 45.746094 89.472656 45.746094 89.472656 C 47.675781 89.136719 55.273438 94.796875 55.273438 94.796875 C 62.148438 95.609375 72.445312 95.597656 85.4375 91.960938 C 85.742188 87.753906 83.9375 73.746094 83.738281 70.230469 C 83.738281 70.230469 92.058594 66.113281 94.023438 65.144531 C 95.574219 64.382812 96.015625 61.519531 96.015625 60.535156 L 90.558594 52.171875 C 90.558594 52.171875 89.945312 51.425781 88.953125 51.8125 C 80.417969 54.0625 74.921875 54.050781 72.527344 54.730469 L 67.832031 51.828125 L 64.5 55.367188 L 63.363281 57.6875 Z M 60.222656 57.6875 " fill-opacity="1" fill-rule="nonzero"/></g><g clip-path="url(#1bb7060470)"><path fill="#ffffff" d="M 65.945312 43.210938 Z M 89.648438 45.023438 C 88.78125 44.597656 83.308594 41.90625 82.734375 41.558594 C 82.453125 41.386719 81.996094 41.148438 81.488281 40.894531 C 81.730469 39.707031 81.207031 38.882812 81.207031 38.882812 C 81.757812 39.03125 82.464844 38.988281 82.464844 38.988281 C 81.195312 38.589844 79.535156 34.195312 75.402344 31.28125 C 71.269531 28.363281 68.515625 28.507812 68.113281 29.242188 C 67.9375 29.1875 67.511719 29.121094 66.910156 29.09375 C 65.917969 30.160156 65.265625 31.132812 65.265625 31.132812 C 67.792969 29.773438 70.011719 30.667969 70.882812 31.132812 L 70.707031 30.839844 C 72.621094 30.71875 74.160156 32.078125 74.828125 32.769531 C 74.828125 32.824219 74.816406 32.863281 74.773438 32.863281 C 74.375 32.863281 73.984375 33.105469 73.785156 33.449219 C 73.679688 33.636719 73.625 33.863281 73.449219 33.996094 C 73.25 34.15625 72.847656 34.234375 72.621094 34.328125 C 72.246094 34.503906 71.925781 34.769531 71.699219 35.089844 C 71.539062 35.3125 71.417969 35.566406 71.203125 35.753906 C 70.921875 35.992188 70.546875 36.058594 70.171875 36.074219 C 69.757812 36.101562 69.332031 36.085938 68.914062 36.035156 C 68.554688 35.980469 68.207031 35.914062 67.84375 35.898438 C 66.828125 35.898438 65.800781 36.484375 64.847656 36.125 C 64.019531 35.820312 63.578125 34.886719 62.789062 34.488281 C 62.414062 34.300781 62 34.25 61.597656 34.140625 C 61.199219 34.035156 60.78125 33.863281 60.554688 33.503906 C 60.355469 33.183594 60.328125 32.785156 60.382812 32.410156 C 60.449219 31.90625 60.675781 31.425781 61.089844 31.121094 C 56.703125 32.757812 55.738281 39.828125 55.914062 40.28125 C 56.449219 39.347656 57.800781 38.9375 58.777344 39.402344 C 59.03125 39.523438 59.269531 39.695312 59.527344 39.816406 C 60.128906 40.082031 60.808594 40.015625 61.453125 39.882812 C 62.09375 39.75 62.722656 39.550781 63.378906 39.5625 C 64.714844 39.574219 66 40.425781 67.3125 40.175781 C 68.300781 39.988281 69.183594 39.175781 70.171875 39.363281 C 70.308594 38.445312 70.375 37.523438 70.308594 36.59375 C 70.949219 37.164062 71.257812 38.136719 71.429688 38.976562 C 71.539062 38.644531 71.65625 38.324219 71.65625 37.976562 C 72.003906 38.242188 72.433594 38.589844 72.582031 39.003906 C 72.78125 38.738281 73.167969 38.46875 73.503906 38.46875 C 73.769531 38.46875 74.039062 38.5625 74.28125 38.484375 C 74.519531 38.402344 74.695312 38.191406 74.839844 37.976562 C 74.734375 37.136719 74.160156 36.433594 73.851562 35.632812 C 74.546875 36.113281 75.324219 36.566406 75.9375 37.152344 C 76.125 37.058594 76.5 37.03125 76.699219 37.003906 C 76.914062 36.980469 77.421875 36.6875 77.410156 36.472656 C 76.835938 35.714844 76.5 34.410156 76.003906 33.398438 C 76.753906 34.128906 77.785156 35.261719 78.535156 36.621094 C 79.28125 37.976562 80.03125 39.414062 80.527344 40.425781 C 80.285156 40.308594 80.058594 40.175781 79.84375 40.066406 C 78.921875 39.5625 78.601562 39.269531 78.277344 39.589844 C 77.0625 38.988281 76.914062 39.816406 76.914062 39.816406 C 75.898438 39.683594 76.070312 40.496094 76.300781 40.828125 C 76.21875 41.039062 76.257812 41.28125 76.378906 41.546875 C 76.445312 42.703125 76.21875 44.011719 75.644531 44.421875 C 75.457031 41.773438 73.71875 39.441406 73.71875 39.441406 C 73.878906 41.253906 72.914062 43.289062 71.511719 44.421875 C 72.445312 42.652344 72.394531 40.90625 72.179688 39.867188 C 72.019531 42.972656 70.773438 44.835938 69.664062 45.207031 C 70.332031 44.128906 69.664062 40.546875 69.664062 40.546875 C 68.96875 42.863281 66.507812 44.796875 65.183594 45.300781 C 65.183594 45.300781 64.367188 45.621094 64.890625 45.0625 C 65.398438 44.503906 65.878906 43.289062 65.894531 43.25 C 65.851562 43.34375 65.25 44.714844 62.320312 45.0625 C 61.425781 47.03125 60.6875 46.765625 59.699219 47.207031 C 58.109375 48.738281 59.527344 50.496094 61.0625 51.425781 C 62.601562 52.359375 63.175781 51.800781 63.175781 51.800781 C 63.175781 51.800781 63.324219 56.046875 62.84375 56.554688 C 62.363281 57.058594 60.167969 57.726562 60.167969 57.726562 C 62.816406 63.558594 70.359375 65.167969 72.539062 61.839844 C 74.828125 58.445312 70.535156 55.300781 70.535156 55.300781 C 70.535156 55.300781 70.535156 55.300781 70.695312 54.914062 C 70.695312 54.914062 71.738281 55.050781 72.632812 54.714844 C 73.746094 54.316406 76.996094 50.949219 77.195312 49.988281 C 77.394531 49.03125 77.046875 47.230469 77.582031 44.609375 C 77.636719 44.011719 77.542969 43.425781 77.382812 42.878906 C 78.464844 43.957031 79.992188 45.007812 80.367188 45.328125 C 77.851562 45.195312 77.730469 46.195312 78.640625 46.367188 C 79.5625 46.539062 80.445312 47.191406 82.132812 48.136719 C 83.816406 49.082031 84.632812 48.871094 85.367188 48.402344 C 86.144531 48.429688 89.355469 50.828125 91.359375 51.851562 C 91.359375 51.851562 93.207031 53.199219 94.503906 53.398438 C 94.503906 53.398438 95.667969 53.316406 96.671875 51.851562 C 97.703125 50.335938 98.8125 48.3125 99.027344 46.566406 C 95.496094 45.820312 90.332031 45.355469 89.648438 45.023438 Z M 89.648438 45.023438 " fill-opacity="1" fill-rule="nonzero"/></g><path fill="#f3eff9" d="M 70.214844 57.167969 L 66.789062 53.957031 C 66.789062 53.957031 68.609375 54.488281 70.722656 54.902344 C 70.722656 54.902344 70.320312 56.246094 70.214844 57.167969 Z M 61.894531 48.765625 C 61.757812 48.324219 61.265625 47.351562 60.300781 47.40625 C 59.738281 47.457031 59.058594 48.804688 60.300781 50.042969 C 61.546875 51.28125 62.628906 50.988281 62.628906 50.988281 C 62.628906 50.988281 62.816406 50.402344 62.480469 49.933594 C 62.148438 49.46875 62.027344 49.203125 61.894531 48.765625 Z M 42.617188 83.160156 C 42.164062 83.574219 41.988281 84.105469 42.097656 84.371094 L 42.351562 84.277344 C 42.296875 84.144531 42.402344 83.71875 42.804688 83.359375 C 43.21875 82.988281 44.183594 82.480469 45.933594 83.332031 L 46.054688 83.09375 C 44.15625 82.160156 43.085938 82.734375 42.617188 83.160156 Z M 83.601562 70.257812 L 83.871094 70.230469 C 83.550781 67.632812 82.34375 64.144531 82.34375 64.144531 C 82.34375 64.171875 83.269531 67.671875 83.601562 70.257812 Z M 89.007812 51.90625 C 89.007812 51.90625 89.394531 52.332031 89.527344 52.558594 L 89.757812 52.425781 C 89.609375 52.171875 89.222656 51.734375 89.195312 51.71875 Z M 92.550781 63.132812 L 92.351562 63.304688 C 93.207031 64.332031 94.625 64.714844 94.679688 64.730469 L 94.746094 64.476562 C 94.746094 64.464844 93.367188 64.089844 92.550781 63.132812 Z M 85.4375 65.636719 C 85.289062 67.113281 84.539062 69.484375 84.539062 69.484375 C 86.089844 67.804688 85.824219 62.039062 85.808594 61.800781 C 85.808594 61.800781 85.636719 63.71875 85.4375 65.636719 Z M 72.046875 82.265625 C 71.109375 82.199219 70.132812 82.132812 69.183594 82.265625 C 69.183594 82.265625 70.679688 82.453125 71.402344 82.492188 C 71.605469 82.507812 71.820312 82.519531 72.019531 82.535156 C 72.554688 82.574219 73.101562 82.613281 73.652344 82.613281 C 74.398438 82.613281 75.148438 82.546875 75.871094 82.292969 C 76.339844 82.132812 76.648438 81.933594 76.863281 81.65625 C 76.863281 81.65625 76.207031 81.894531 75.792969 82.039062 C 74.613281 82.441406 73.371094 82.359375 72.046875 82.265625 Z M 54.882812 73.585938 C 55.566406 77.339844 55.953125 81.855469 55.738281 84.304688 C 55.671875 85.039062 55.605469 85.863281 55.539062 86.753906 L 55.808594 86.769531 C 55.875 85.875 55.941406 85.050781 56.007812 84.316406 C 56.410156 79.898438 54.898438 69.429688 53.292969 67.472656 C 53.292969 67.484375 54.390625 70.800781 54.882812 73.585938 Z M 54.882812 73.585938 " fill-opacity="1" fill-rule="nonzero"/><g clip-path="url(#c63fcfdd43)"><path fill="#f3eff9" d="M 99.09375 46.539062 C 100.070312 46.738281 100.925781 46.953125 101.554688 47.179688 C 103.855469 48.042969 104.136719 48.472656 104.402344 49.015625 C 104.605469 49.84375 104.164062 53.039062 100.644531 56.738281 C 97.125 60.441406 92.457031 63.226562 92.457031 63.226562 C 91.777344 62.730469 90.707031 59.734375 90.757812 57.207031 C 90.8125 54.675781 89.648438 52.519531 89.648438 52.519531 L 91.429688 51.839844 C 92.3125 52.371094 93.339844 53.199219 94.570312 53.382812 C 96.003906 53.585938 98.304688 50.003906 99.09375 46.539062 M 45.976562 83.226562 L 45.507812 92.601562 C 45.507812 92.601562 48.945312 94.050781 55.257812 94.796875 L 55.671875 86.769531 C 54.628906 86.714844 50.617188 86.25 47.019531 83.8125 C 46.65625 83.558594 46.308594 83.371094 45.988281 83.210938 M 63.539062 47.390625 C 63.539062 47.390625 63.871094 48.285156 68.355469 48.03125 C 68.355469 48.03125 69.289062 46.9375 69.15625 46.339844 C 68.394531 45.765625 67.082031 45.355469 66.335938 45.5 C 65.597656 45.660156 63.03125 46.78125 63.539062 47.390625 Z M 73.0625 46.339844 C 72.902344 46.6875 73.0625 47.285156 73.0625 47.285156 C 73.0625 47.285156 74.867188 47.765625 76.164062 47.285156 C 76.699219 46.992188 76.863281 45.714844 76.753906 45.273438 C 76.527344 44.277344 73.71875 44.597656 73.0625 46.339844 Z M 73.0625 46.339844 " fill-opacity="1" fill-rule="nonzero"/></g><path fill="#171717" d="M 62.496094 45.101562 L 62.269531 44.96875 C 62.828125 44.050781 63.5 41.652344 63.5 41.652344 C 63.472656 41.746094 63.082031 44.144531 62.496094 45.101562 Z M 59.714844 47.058594 L 59.804688 47.3125 C 60.261719 47.140625 60.796875 44.980469 60.824219 43.929688 C 60.824219 43.929688 59.953125 46.9375 59.714844 47.058594 Z M 65.839844 43.132812 L 66.066406 43.277344 C 66.816406 42.160156 67.054688 40.425781 67.070312 40.347656 C 67.054688 40.359375 66.546875 42.066406 65.839844 43.132812 Z M 70.628906 37.566406 C 70.628906 37.566406 70.867188 39.296875 70.894531 40.320312 C 70.921875 41.292969 70.761719 42.984375 70.761719 42.984375 C 71.402344 41.691406 71.230469 38.789062 70.628906 37.566406 Z M 74.640625 36.605469 C 74.652344 36.632812 76.003906 39.375 76.058594 40.09375 L 76.328125 40.082031 C 76.273438 39.296875 74.640625 36.605469 74.640625 36.605469 Z M 69.289062 29.972656 C 69.945312 30.507812 70.707031 31.027344 70.707031 31.027344 C 70.65625 30.945312 69.261719 29.214844 68.113281 29.09375 L 68.085938 29.363281 C 68.261719 29.375 68.433594 29.441406 68.621094 29.535156 C 67.257812 29.480469 65.519531 30.640625 64.941406 31.292969 C 64.941406 31.292969 66.039062 30.679688 66.722656 30.335938 C 67.605469 29.894531 68.621094 29.613281 69.289062 29.972656 Z M 69.15625 31.121094 C 68.820312 31.132812 68.460938 31.398438 68.058594 31.90625 C 67.191406 33.023438 66.386719 35.113281 66.453125 35.449219 C 66.453125 35.449219 67.054688 34.183594 67.566406 33.210938 C 67.804688 32.746094 68.085938 32.277344 68.367188 31.945312 C 68.660156 31.585938 69.15625 31.121094 69.15625 31.121094 Z M 75.015625 32.304688 C 74.027344 30.773438 72.058594 30.292969 71.269531 30.386719 C 71.269531 30.386719 72.527344 30.734375 73.316406 31.144531 C 73.878906 31.4375 75.015625 32.304688 75.015625 32.304688 Z M 57.480469 51.652344 L 57.691406 51.8125 C 58.28125 51 58.804688 50.453125 58.804688 50.453125 C 58.777344 50.46875 58.121094 50.773438 57.480469 51.652344 Z M 81.316406 38.804688 C 80.902344 38.125 80.339844 37.550781 80.3125 37.523438 C 80.3125 37.523438 80.6875 38.285156 81.089844 38.9375 Z M 79.390625 38.695312 C 79.390625 38.695312 78.464844 37.179688 77.769531 36.101562 C 77.675781 35.953125 77.570312 35.792969 77.476562 35.648438 C 77.128906 35.113281 76.234375 34.25 76.234375 34.25 C 76.539062 34.703125 76.902344 35.261719 77.25 35.792969 C 78.117188 37.136719 78.933594 38.417969 79.390625 38.695312 Z M 70.75 54.875 L 70.761719 54.742188 C 70.121094 54.6875 67.765625 54.238281 67.738281 54.222656 C 67.738281 54.222656 69.71875 54.835938 70.546875 54.980469 C 70.265625 55.742188 70 58.125 69.972656 58.789062 C 69.972656 58.789062 70.65625 55.195312 70.84375 54.980469 C 70.84375 54.980469 70.84375 54.980469 70.828125 54.996094 Z M 62.429688 49.65625 C 62.320312 49.523438 62.214844 49.390625 62.148438 49.242188 C 62.09375 49.125 62.066406 48.976562 62.039062 48.832031 C 62.027344 48.75 62.011719 48.671875 61.988281 48.605469 C 61.894531 48.21875 61.679688 47.886719 61.410156 47.660156 C 61.089844 47.40625 60.675781 47.3125 60.316406 47.40625 C 60.316406 47.40625 60.996094 47.671875 61.25 47.871094 C 61.480469 48.058594 61.652344 48.335938 61.734375 48.671875 C 61.746094 48.738281 61.757812 48.816406 61.773438 48.882812 C 61.800781 49.042969 61.839844 49.203125 61.90625 49.347656 C 61.988281 49.535156 62.105469 49.683594 62.226562 49.828125 C 62.308594 49.921875 62.375 50.015625 62.441406 50.121094 C 62.574219 50.335938 62.640625 50.988281 62.640625 50.988281 C 62.921875 50.722656 62.855469 50.28125 62.667969 49.976562 C 62.589844 49.867188 62.507812 49.761719 62.429688 49.65625 Z M 85.34375 48.269531 L 85.515625 48.484375 C 85.902344 48.179688 86.0625 48.019531 86.078125 48.003906 C 86.0625 48.003906 85.714844 47.976562 85.34375 48.269531 Z M 80.484375 45.195312 L 80.351562 45.433594 C 80.5 45.515625 80.605469 45.765625 80.726562 46.007812 C 80.875 46.328125 81.019531 46.660156 81.289062 46.820312 C 81.289062 46.820312 81.101562 46.179688 80.96875 45.902344 C 80.835938 45.59375 80.699219 45.316406 80.484375 45.195312 Z M 78.398438 39.65625 C 78.398438 39.667969 78.386719 39.683594 78.371094 39.695312 L 78.253906 39.457031 C 78.1875 39.496094 78.144531 39.5625 78.132812 39.65625 C 78.117188 39.960938 78.585938 40.601562 79.816406 41.507812 C 80.246094 41.8125 81.503906 42.304688 81.503906 42.304688 C 78.855469 40.695312 78.371094 39.789062 78.398438 39.65625 Z M 77.089844 39.773438 L 76.820312 39.816406 C 76.914062 40.425781 78.078125 41.214844 79.578125 42.183594 C 80.097656 42.519531 80.980469 42.824219 80.980469 42.824219 C 80.714844 42.613281 80.257812 42.304688 79.722656 41.972656 C 78.640625 41.265625 77.167969 40.308594 77.089844 39.773438 Z M 78.441406 42.359375 C 77.636719 41.773438 76.554688 40.960938 76.472656 40.773438 C 76.472656 40.773438 76.472656 40.773438 76.472656 40.789062 L 76.207031 40.828125 C 76.234375 41.039062 76.753906 41.453125 78.277344 42.570312 C 78.988281 43.089844 80.152344 43.703125 80.152344 43.703125 C 79.882812 43.4375 79.1875 42.917969 78.441406 42.359375 Z M 72.875 48.816406 C 72.59375 48.324219 71.871094 47.378906 71.871094 47.378906 C 72.085938 47.910156 72.355469 48.445312 72.632812 48.949219 Z M 70.066406 51.734375 C 70.105469 51.746094 70.65625 51.894531 71.335938 51.894531 C 72.046875 51.894531 72.902344 51.734375 73.503906 51.09375 C 73.503906 51.09375 72.367188 51.519531 71.84375 51.585938 C 70.960938 51.691406 70.066406 51.734375 70.066406 51.734375 Z M 95.253906 53.957031 C 95.253906 53.957031 95.335938 54.410156 95.496094 54.53125 C 95.667969 54.648438 96.765625 54.875 96.765625 54.875 C 96.417969 54.742188 95.507812 54.238281 95.253906 53.957031 Z M 95.121094 53.359375 C 95.011719 53.34375 94.917969 53.316406 94.8125 53.292969 C 94.707031 53.359375 94.585938 53.425781 94.464844 53.476562 C 95.011719 53.625 96.726562 53.957031 97.421875 53.957031 C 97.472656 53.957031 97.527344 53.957031 97.566406 53.957031 C 97.554688 53.957031 95.519531 53.425781 95.121094 53.359375 Z M 86.183594 47.152344 C 85.476562 47.207031 84.6875 46.871094 84.03125 46.421875 C 83.667969 46.167969 82.894531 45.726562 82.894531 45.726562 C 83.578125 46.566406 84.875 47.417969 86.039062 47.417969 C 86.089844 47.417969 86.15625 47.417969 86.210938 47.417969 C 86.945312 47.367188 87.535156 46.964844 87.964844 46.234375 C 87.964844 46.234375 87.242188 46.765625 86.921875 46.9375 C 86.691406 47.058594 86.453125 47.125 86.183594 47.152344 Z M 80.152344 44.101562 C 80.152344 44.101562 81.355469 42.730469 82.464844 42.238281 C 82.464844 42.238281 80.621094 42.703125 80.152344 44.101562 Z M 63.417969 51.894531 L 63.351562 51.71875 L 63.097656 51.8125 L 63.164062 51.984375 C 63.285156 52.304688 63.335938 52.4375 63.511719 52.691406 C 63.710938 52.984375 64.101562 53.210938 64.128906 53.226562 C 64.128906 53.226562 63.914062 52.796875 63.738281 52.546875 C 63.578125 52.320312 63.539062 52.199219 63.417969 51.894531 Z M 65.636719 47.230469 C 65.195312 47.230469 64.796875 47.058594 64.488281 46.78125 C 64.5 47.246094 64.664062 47.671875 64.917969 47.964844 C 65.316406 48.03125 65.839844 48.070312 66.507812 48.085938 C 66.84375 47.777344 67.070312 47.273438 67.070312 46.699219 C 67.070312 46.605469 67.054688 46.527344 67.054688 46.433594 C 66.777344 46.914062 66.242188 47.230469 65.636719 47.230469 Z M 74.960938 45.472656 C 74.960938 46.234375 74.320312 46.847656 73.515625 46.847656 C 73.328125 46.847656 73.15625 46.804688 72.980469 46.753906 C 72.980469 47.03125 73.050781 47.285156 73.050781 47.285156 C 73.050781 47.285156 73.863281 47.5 74.789062 47.5 C 75.027344 47.191406 75.1875 46.765625 75.1875 46.300781 C 75.1875 45.941406 75.109375 45.609375 74.949219 45.339844 C 74.960938 45.382812 74.960938 45.421875 74.960938 45.472656 Z M 74.960938 45.472656 " fill-opacity="1" fill-rule="nonzero"/><g clip-path="url(#5891a3d10e)"><path fill="#545454" d="M 104.523438 48.988281 L 104.511719 48.964844 C 104.214844 48.351562 103.867188 47.910156 101.59375 47.058594 C 99.816406 46.394531 96.257812 45.914062 93.394531 45.515625 C 91.589844 45.273438 90.035156 45.0625 89.714844 44.902344 C 89.527344 44.808594 89.128906 44.609375 88.617188 44.355469 C 86.746094 43.4375 83.253906 41.71875 82.8125 41.453125 C 82.546875 41.292969 82.117188 41.066406 81.648438 40.828125 C 81.785156 40.027344 81.597656 39.402344 81.460938 39.070312 C 81.957031 39.148438 82.464844 39.121094 82.492188 39.121094 L 83.203125 39.082031 L 82.53125 38.871094 C 82.066406 38.722656 81.460938 37.871094 80.714844 36.820312 C 79.5625 35.179688 77.972656 32.929688 75.496094 31.1875 C 72.339844 28.949219 69.933594 28.457031 68.730469 28.722656 C 68.421875 28.789062 68.179688 28.921875 68.046875 29.082031 C 67.242188 28.894531 63.671875 28.5625 60.410156 30.480469 C 57.828125 32 56.15625 34.503906 55.433594 37.9375 C 54.496094 42.410156 55.460938 44.609375 56.234375 46.378906 C 56.542969 47.074219 56.808594 47.671875 56.902344 48.3125 C 57.25 50.519531 56.488281 51.746094 56.476562 51.746094 L 56.300781 52.027344 L 57.546875 51.746094 C 57.414062 52.054688 57.199219 52.640625 57.0625 53.359375 L 56.890625 54.316406 L 57.320312 53.4375 C 57.320312 53.425781 57.679688 52.71875 58.507812 52.265625 C 58.402344 52.570312 58.253906 53.078125 58.160156 53.542969 C 58.109375 53.863281 58.226562 54.183594 58.496094 54.355469 C 58.921875 54.664062 59.578125 55.050781 60.195312 55.207031 L 60.421875 55.261719 L 60.355469 55.035156 C 60.046875 53.996094 60.316406 53.316406 60.527344 52.972656 C 60.542969 53.585938 60.664062 54.769531 61.292969 55.289062 L 61.519531 55.476562 L 61.503906 55.183594 C 61.492188 54.515625 61.664062 53.945312 61.8125 53.585938 C 61.894531 54.195312 62.175781 55.195312 63.015625 55.460938 C 62.964844 55.953125 62.894531 56.3125 62.789062 56.421875 C 62.414062 56.820312 60.769531 57.378906 60.167969 57.550781 L 60.019531 57.59375 C 56.195312 58.882812 49.253906 61.761719 46.792969 64.609375 C 44.863281 66.859375 41.910156 82.28125 41.84375 83.464844 C 41.773438 84.625 44.933594 88.671875 45.546875 89.445312 L 45.386719 92.695312 L 45.46875 92.734375 C 45.507812 92.746094 49.320312 94.332031 56.113281 95.039062 C 58 95.238281 60.246094 95.371094 62.816406 95.371094 C 68.769531 95.371094 76.460938 94.625 85.460938 92.109375 L 85.554688 92.082031 L 85.570312 91.988281 C 85.785156 89.125 85.007812 81.65625 84.445312 76.195312 C 84.179688 73.664062 83.949219 71.46875 83.882812 70.324219 C 84.738281 69.898438 92.242188 66.179688 94.089844 65.277344 C 95.546875 64.558594 96.070312 62.105469 96.148438 60.855469 C 97.609375 59.761719 99.265625 58.378906 100.738281 56.832031 C 104.148438 53.226562 104.765625 49.988281 104.523438 48.988281 Z M 82.667969 41.667969 C 83.121094 41.945312 86.613281 43.664062 88.484375 44.582031 C 89.007812 44.835938 89.394531 45.035156 89.582031 45.128906 C 89.945312 45.316406 91.375 45.5 93.355469 45.765625 C 95.148438 46.007812 97.207031 46.285156 98.917969 46.632812 C 98.101562 50.054688 95.894531 53.425781 94.570312 53.238281 C 93.796875 53.132812 92.777344 52.503906 91.949219 52 C 91.871094 51.945312 91.789062 51.894531 91.710938 51.851562 L 91.734375 51.839844 L 91.46875 51.707031 C 90.613281 51.265625 89.542969 50.589844 88.511719 49.933594 C 87.109375 49.042969 85.890625 48.257812 85.410156 48.246094 L 85.367188 48.246094 L 85.328125 48.269531 C 84.699219 48.671875 83.9375 48.976562 82.226562 48.003906 C 81.796875 47.765625 81.410156 47.539062 81.074219 47.339844 C 80.070312 46.738281 79.402344 46.351562 78.707031 46.21875 C 78.453125 46.167969 78.277344 46.046875 78.292969 45.925781 C 78.320312 45.699219 78.90625 45.382812 80.394531 45.449219 L 80.78125 45.472656 L 80.484375 45.222656 C 80.378906 45.128906 80.191406 44.980469 79.953125 44.796875 C 78.800781 43.917969 76.097656 41.878906 76.460938 40.855469 L 76.488281 40.789062 L 76.445312 40.734375 C 76.328125 40.574219 76.234375 40.253906 76.339844 40.066406 C 76.445312 39.894531 76.714844 39.894531 76.929688 39.921875 L 77.046875 39.933594 L 77.074219 39.816406 C 77.074219 39.800781 77.117188 39.617188 77.304688 39.535156 C 77.503906 39.429688 77.835938 39.480469 78.253906 39.695312 L 78.332031 39.734375 L 78.398438 39.667969 C 78.585938 39.480469 78.761719 39.5625 79.390625 39.933594 C 79.511719 40 79.644531 40.082031 79.804688 40.175781 C 80.230469 40.414062 80.765625 40.679688 81.277344 40.945312 C 81.835938 41.214844 82.371094 41.492188 82.667969 41.667969 Z M 75.65625 52.359375 C 76.539062 51.414062 77.289062 50.441406 77.382812 49.988281 C 77.464844 49.617188 77.464844 49.125 77.449219 48.496094 C 77.449219 47.59375 77.4375 46.367188 77.703125 44.886719 C 77.746094 44.863281 78.347656 44.542969 78.773438 44.210938 C 79.09375 44.476562 79.441406 44.730469 79.789062 44.996094 C 79.871094 45.046875 79.9375 45.113281 80.003906 45.15625 C 79.992188 45.15625 79.976562 45.15625 79.964844 45.15625 C 78.613281 45.15625 78.078125 45.515625 78.023438 45.875 C 78 46.152344 78.238281 46.394531 78.652344 46.460938 C 79.308594 46.578125 79.964844 46.964844 80.941406 47.550781 C 81.277344 47.75 81.664062 47.976562 82.105469 48.230469 C 83.75 49.164062 84.605469 49.03125 85.449219 48.511719 C 85.890625 48.5625 87.160156 49.375 88.378906 50.148438 C 89.316406 50.746094 90.265625 51.359375 91.09375 51.800781 L 90.570312 52 C 90.359375 51.800781 89.757812 51.375 88.914062 51.691406 C 83.484375 53.117188 79.347656 53.625 76.339844 53.996094 C 76.152344 54.023438 75.964844 54.035156 75.777344 54.0625 C 75.617188 53.4375 75.46875 52.558594 75.65625 52.359375 Z M 77.675781 43.265625 C 77.957031 43.515625 78.253906 43.769531 78.574219 44.035156 C 78.304688 44.234375 77.972656 44.4375 77.769531 44.542969 C 77.8125 44.144531 77.769531 43.71875 77.675781 43.265625 Z M 62.054688 53.105469 L 62.054688 52.652344 L 61.8125 53.039062 C 61.785156 53.078125 61.332031 53.808594 61.265625 54.863281 C 60.757812 54.117188 60.824219 52.640625 60.824219 52.625 L 60.835938 52.320312 L 60.597656 52.519531 C 60.554688 52.558594 59.6875 53.316406 60.046875 54.890625 C 59.5 54.703125 58.949219 54.34375 58.65625 54.144531 C 58.480469 54.023438 58.386719 53.796875 58.429688 53.597656 C 58.5625 52.890625 58.871094 52.066406 58.871094 52.066406 L 58.976562 51.785156 L 58.695312 51.90625 C 58.148438 52.132812 57.746094 52.480469 57.492188 52.773438 C 57.679688 52.09375 57.90625 51.652344 57.90625 51.640625 L 58.039062 51.386719 L 56.851562 51.652344 C 57.078125 51.175781 57.453125 50.027344 57.183594 48.296875 C 57.078125 47.617188 56.808594 47.007812 56.488281 46.300781 C 55.726562 44.570312 54.777344 42.410156 55.699219 38.03125 C 56.410156 34.675781 58.039062 32.226562 60.554688 30.746094 C 63.671875 28.921875 67.324219 29.164062 68.074219 29.402344 L 68.179688 29.429688 L 68.234375 29.335938 C 68.3125 29.1875 68.515625 29.082031 68.796875 29.015625 C 69.945312 28.761719 72.261719 29.253906 75.324219 31.414062 C 77.757812 33.128906 79.324219 35.355469 80.472656 36.980469 C 81.074219 37.832031 81.554688 38.511719 81.984375 38.882812 C 81.757812 38.871094 81.476562 38.84375 81.234375 38.777344 L 80.902344 38.683594 L 81.089844 38.976562 C 81.089844 38.988281 81.53125 39.695312 81.382812 40.71875 C 80.875 40.46875 80.367188 40.203125 79.9375 39.960938 C 79.789062 39.882812 79.65625 39.800781 79.535156 39.734375 C 78.949219 39.402344 78.613281 39.203125 78.292969 39.457031 C 77.835938 39.242188 77.464844 39.203125 77.183594 39.347656 C 76.996094 39.441406 76.902344 39.601562 76.863281 39.707031 C 76.421875 39.667969 76.21875 39.84375 76.125 39.988281 C 75.953125 40.269531 76.070312 40.667969 76.207031 40.878906 C 76.152344 41.105469 76.179688 41.359375 76.300781 41.625 C 76.351562 42.71875 76.152344 43.703125 75.804688 44.167969 C 75.523438 41.640625 73.945312 39.496094 73.878906 39.402344 L 73.597656 39.03125 L 73.636719 39.496094 C 73.769531 41 73.101562 42.730469 71.980469 43.902344 C 72.703125 42.144531 72.5 40.535156 72.378906 39.882812 L 72.167969 38.828125 L 72.113281 39.894531 C 71.980469 42.570312 70.988281 44.394531 70 44.96875 C 70.425781 43.609375 69.890625 40.679688 69.867188 40.546875 L 69.757812 40 L 69.597656 40.535156 C 68.890625 42.917969 66.386719 44.742188 65.195312 45.195312 C 65.117188 45.222656 65.035156 45.25 64.96875 45.261719 C 64.996094 45.234375 65.023438 45.195312 65.050781 45.15625 C 65.558594 44.597656 66.039062 43.425781 66.078125 43.304688 C 66.078125 43.304688 66.078125 43.289062 66.078125 43.289062 L 65.824219 43.199219 C 65.800781 43.25 65.210938 44.597656 62.363281 44.929688 L 62.28125 44.941406 L 62.253906 45.007812 C 61.585938 46.488281 61.039062 46.644531 60.339844 46.859375 C 60.140625 46.925781 59.925781 46.980469 59.699219 47.085938 L 59.671875 47.097656 L 59.660156 47.113281 C 59.109375 47.644531 58.855469 48.246094 58.921875 48.882812 C 59.03125 49.816406 59.820312 50.800781 61.039062 51.546875 C 62.132812 52.210938 62.789062 52.144531 63.097656 52.027344 C 63.125 53 63.125 54.289062 63.042969 55.222656 C 62.082031 54.808594 62.054688 53.117188 62.054688 53.105469 Z M 63.003906 56.605469 C 63.5 56.074219 63.378906 52.199219 63.363281 51.761719 L 63.351562 51.46875 L 63.136719 51.667969 C 63.136719 51.667969 62.589844 52.132812 61.183594 51.28125 C 60.300781 50.746094 59.3125 49.816406 59.203125 48.816406 C 59.136719 48.269531 59.351562 47.75 59.832031 47.285156 C 60.035156 47.191406 60.234375 47.140625 60.421875 47.074219 C 61.105469 46.859375 61.757812 46.660156 62.46875 45.140625 C 63.578125 44.996094 64.355469 44.714844 64.890625 44.410156 C 64.996094 44.394531 65.117188 44.371094 65.238281 44.355469 C 65.117188 44.570312 64.96875 44.78125 64.835938 44.929688 C 64.6875 45.089844 64.570312 45.261719 64.664062 45.394531 C 64.742188 45.515625 64.957031 45.515625 65.277344 45.382812 C 65.746094 45.207031 66.414062 44.820312 67.097656 44.277344 C 67.429688 44.289062 67.792969 44.328125 68.167969 44.382812 C 68.449219 44.34375 68.753906 43.902344 68.753906 43.902344 C 68.753906 43.902344 68.289062 43.851562 67.644531 43.808594 C 68.460938 43.0625 69.222656 42.117188 69.664062 41.054688 C 69.8125 42.078125 70.078125 44.316406 69.597656 45.113281 L 69.410156 45.421875 L 69.757812 45.300781 C 70.734375 44.980469 71.820312 43.582031 72.21875 41.1875 C 72.21875 42.050781 72.046875 43.171875 71.429688 44.328125 L 71.121094 44.902344 L 71.632812 44.488281 C 72.980469 43.398438 73.878906 41.546875 73.90625 39.867188 C 74.28125 40.453125 74.976562 41.652344 75.335938 43.078125 L 72.769531 43.691406 C 72.769531 43.691406 73.035156 44.144531 73.449219 44.117188 C 73.691406 44.101562 74.574219 43.769531 75.445312 43.558594 C 75.484375 43.796875 75.523438 44.050781 75.550781 44.304688 C 74.867188 44.34375 74.121094 44.609375 73.542969 45.394531 C 73.304688 45.621094 73.074219 45.914062 72.941406 46.273438 C 72.769531 46.644531 72.929688 47.273438 72.929688 47.300781 L 72.941406 47.378906 L 73.023438 47.390625 C 73.0625 47.40625 73.851562 47.605469 74.773438 47.605469 C 74.933594 47.632812 75.082031 47.644531 75.214844 47.644531 C 75.445312 47.644531 75.628906 47.605469 75.792969 47.566406 C 76.164062 47.445312 76.300781 47.152344 76.300781 47.152344 C 76.300781 47.152344 76.003906 47.246094 75.644531 47.339844 C 75.46875 47.378906 75.269531 47.40625 75.015625 47.378906 C 75.203125 47.058594 75.308594 46.6875 75.308594 46.273438 C 75.308594 45.792969 75.148438 45.328125 74.894531 44.996094 C 75.429688 44.847656 76.070312 44.875 76.753906 45.261719 L 77.316406 44.621094 C 77.316406 44.621094 76.726562 44.355469 75.964844 44.304688 C 76.152344 44.078125 76.285156 43.769531 76.378906 43.410156 C 76.632812 43.398438 76.863281 43.410156 77.035156 43.492188 C 76.863281 43.289062 76.648438 43.144531 76.460938 43.050781 C 76.527344 42.730469 76.554688 42.371094 76.554688 42.027344 C 76.753906 42.304688 77.007812 42.597656 77.316406 42.90625 C 77.476562 43.476562 77.542969 44.035156 77.503906 44.542969 C 77.167969 46.179688 77.183594 47.511719 77.183594 48.484375 C 77.183594 49.082031 77.183594 49.5625 77.117188 49.921875 C 77.023438 50.335938 76.3125 51.253906 75.457031 52.160156 C 75.457031 52.160156 75.457031 52.171875 75.445312 52.171875 C 74.425781 53.265625 73.210938 54.34375 72.621094 54.554688 C 71.765625 54.863281 70.75 54.742188 70.734375 54.742188 L 70.628906 54.730469 L 70.402344 55.300781 L 70.480469 55.367188 C 70.519531 55.394531 74.652344 58.472656 72.460938 61.71875 C 71.683594 62.90625 70.160156 63.492188 68.273438 63.34375 C 65.546875 63.132812 62.066406 61.335938 60.382812 57.753906 C 60.917969 57.605469 62.574219 57.058594 63.003906 56.605469 Z M 74.414062 46.714844 C 74.773438 46.5 74.933594 46.207031 75.015625 45.925781 C 75.042969 46.046875 75.042969 46.167969 75.042969 46.285156 C 75.042969 46.6875 74.921875 47.074219 74.722656 47.351562 C 74.011719 47.351562 73.382812 47.21875 73.15625 47.164062 C 73.144531 47.097656 73.128906 47.019531 73.117188 46.925781 C 73.210938 46.953125 73.328125 46.964844 73.476562 46.964844 C 73.558594 46.964844 73.652344 46.964844 73.730469 46.953125 C 73.796875 47.058594 73.917969 47.191406 74.144531 47.152344 C 74.398438 47.125 74.425781 46.871094 74.414062 46.714844 Z M 74.210938 46.527344 C 73.703125 46.78125 73.304688 46.699219 73.128906 46.660156 C 73.128906 46.566406 73.15625 46.472656 73.183594 46.394531 C 73.261719 46.167969 73.382812 45.96875 73.53125 45.808594 C 73.8125 45.554688 74.1875 45.273438 74.628906 45.101562 C 74.707031 45.179688 74.761719 45.273438 74.828125 45.367188 C 74.839844 45.515625 74.855469 46.207031 74.210938 46.527344 Z M 75.511719 54.101562 C 74.722656 54.195312 74.011719 54.304688 73.421875 54.410156 C 73.972656 54.011719 74.652344 53.382812 75.296875 52.730469 C 75.296875 53.183594 75.429688 53.796875 75.511719 54.101562 Z M 45.65625 92.507812 L 45.816406 89.417969 L 45.855469 89.390625 C 45.839844 89.378906 45.828125 89.363281 45.828125 89.351562 L 46.121094 83.414062 C 46.390625 83.558594 46.671875 83.71875 46.953125 83.90625 C 50.644531 86.410156 54.671875 86.820312 55.554688 86.886719 L 55.152344 94.652344 C 49.546875 93.972656 46.214844 92.734375 45.65625 92.507812 Z M 93.96875 65.035156 C 92.015625 65.996094 83.761719 70.082031 83.683594 70.121094 L 83.601562 70.164062 L 83.601562 70.257812 C 83.667969 71.386719 83.898438 73.636719 84.164062 76.234375 C 84.726562 81.613281 85.488281 88.964844 85.300781 91.882812 C 72.5 95.449219 62.386719 95.421875 56.15625 94.785156 C 55.902344 94.757812 55.648438 94.730469 55.40625 94.703125 L 55.820312 86.792969 L 55.6875 86.78125 L 55.699219 86.648438 C 55.230469 86.621094 50.976562 86.328125 47.113281 83.707031 C 46.75 83.464844 46.402344 83.253906 46.070312 83.09375 L 45.882812 83 L 45.574219 89.03125 C 44.371094 87.5 42.070312 84.359375 42.109375 83.480469 C 42.175781 82.308594 45.09375 67.007812 47.003906 64.796875 C 49.441406 61.988281 56.355469 59.125 60.140625 57.859375 C 61.867188 61.546875 65.453125 63.425781 68.261719 63.636719 C 68.449219 63.652344 68.648438 63.664062 68.820312 63.664062 C 70.546875 63.664062 71.9375 63.039062 72.6875 61.894531 C 74.839844 58.699219 71.324219 55.714844 70.734375 55.234375 L 70.816406 55.035156 C 71.082031 55.0625 71.84375 55.089844 72.554688 54.875 C 73.410156 54.636719 74.707031 54.476562 76.351562 54.277344 C 79.375 53.902344 83.523438 53.398438 88.980469 51.960938 L 88.992188 51.960938 C 89.609375 51.71875 90.0625 51.945312 90.292969 52.121094 L 89.449219 52.4375 L 89.515625 52.570312 C 89.527344 52.597656 90.652344 54.730469 90.613281 57.191406 C 90.558594 59.789062 91.65625 62.8125 92.363281 63.332031 L 92.429688 63.386719 L 92.511719 63.34375 C 92.539062 63.332031 93.984375 62.464844 95.855469 61.066406 C 95.75 62.304688 95.242188 64.410156 93.96875 65.035156 Z M 100.539062 56.648438 C 97.328125 60.027344 93.101562 62.664062 92.457031 63.050781 C 91.800781 62.441406 90.828125 59.589844 90.878906 57.191406 C 90.917969 55.007812 90.0625 53.089844 89.824219 52.570312 L 91.402344 51.972656 C 91.535156 52.054688 91.667969 52.132812 91.816406 52.226562 C 92.660156 52.746094 93.703125 53.398438 94.53125 53.503906 C 94.585938 53.519531 94.625 53.519531 94.679688 53.519531 C 96.269531 53.519531 98.425781 49.882812 99.1875 46.6875 C 100.097656 46.871094 100.898438 47.074219 101.5 47.300781 C 103.816406 48.164062 104.027344 48.578125 104.269531 49.058594 C 104.484375 50.003906 103.839844 53.171875 100.539062 56.648438 Z M 64.367188 46.820312 C 64.382812 47.179688 64.488281 47.523438 64.664062 47.804688 C 64.609375 47.792969 64.542969 47.777344 64.488281 47.765625 C 64.035156 47.660156 63.726562 47.617188 63.726562 47.617188 C 63.726562 47.617188 63.941406 47.898438 64.382812 48.003906 C 64.890625 48.136719 65.652344 48.269531 66.574219 48.269531 C 66.894531 48.269531 67.566406 48.058594 67.566406 48.058594 C 67.566406 48.058594 67.070312 48.019531 66.761719 48.003906 C 67.042969 47.660156 67.21875 47.191406 67.21875 46.6875 C 67.21875 46.378906 67.164062 46.101562 67.042969 45.835938 C 68.300781 45.753906 69.023438 46.285156 69.15625 46.328125 C 67.617188 43.53125 62.683594 46.671875 62.683594 46.671875 L 63.539062 47.378906 C 63.832031 47.179688 64.101562 46.992188 64.367188 46.820312 Z M 66.46875 47.953125 C 65.90625 47.9375 65.410156 47.898438 64.996094 47.832031 C 64.835938 47.632812 64.714844 47.367188 64.664062 47.085938 C 64.824219 47.191406 65.050781 47.300781 65.332031 47.351562 C 65.503906 47.765625 66.039062 47.578125 66.121094 47.285156 C 66.480469 47.179688 66.761719 46.980469 66.949219 46.820312 C 66.910156 47.273438 66.75 47.671875 66.46875 47.953125 Z M 64.621094 46.660156 C 65.4375 46.179688 66.160156 45.953125 66.761719 45.875 C 66.84375 46.046875 66.910156 46.246094 66.921875 46.460938 C 66.789062 46.605469 66.375 47.019531 65.757812 47.097656 C 65.144531 47.179688 64.730469 46.832031 64.609375 46.726562 C 64.609375 46.726562 64.609375 46.714844 64.609375 46.714844 C 64.621094 46.6875 64.621094 46.671875 64.621094 46.660156 Z M 64.621094 46.660156 " fill-opacity="1" fill-rule="nonzero"/></g><g clip-path="url(#ada6b6271c)"><g clip-path="url(#a19d8184ee)"><g clip-path="url(#2ed169deb9)"><path fill="#ffffff" d="M 107.539062 73.339844 C 115.546875 73.601562 123.53125 74.800781 131.46875 77.601562 C 129.257812 79.960938 127.042969 82.4375 124.824219 85.015625 C 126.871094 88.710938 128.914062 92.511719 130.953125 96.421875 C 123.015625 93.621094 115.035156 92.421875 107.027344 92.164062 C 107.199219 85.890625 107.371094 79.617188 107.539062 73.339844 " fill-opacity="1" fill-rule="nonzero"/></g></g></g><g clip-path="url(#921e7e47b8)"><g clip-path="url(#1504b42a62)"><g clip-path="url(#e3bd1cf2e3)"><path fill="#000000" d="M 107.539062 73.339844 C 111.703125 75.53125 115.859375 77.980469 120.007812 80.789062 C 115.804688 80.03125 111.59375 79.636719 107.371094 79.5 C 107.429688 77.445312 107.484375 75.394531 107.539062 73.339844 " fill-opacity="1" fill-rule="nonzero"/></g></g></g><g clip-path="url(#c10bb1b1dc)"><g clip-path="url(#ee61dbcf22)"><g clip-path="url(#18d04765a8)"><path fill="#ffffff" d="M 39.242188 78.691406 C 31.234375 78.429688 23.253906 77.230469 15.316406 74.429688 C 17.355469 78.292969 19.402344 82.039062 21.449219 85.683594 C 19.230469 88.3125 17.015625 90.839844 14.800781 93.253906 C 22.738281 96.054688 30.722656 97.253906 38.730469 97.511719 C 38.902344 91.238281 39.070312 84.964844 39.242188 78.691406 " fill-opacity="1" fill-rule="nonzero"/></g></g></g><g clip-path="url(#cc4a9ea760)"><g clip-path="url(#20d7b68994)"><g clip-path="url(#7f9a69b53a)"><path fill="#000000" d="M 39.242188 78.691406 C 34.96875 80.605469 30.699219 82.261719 26.441406 83.558594 C 30.644531 84.3125 34.855469 84.710938 39.074219 84.847656 C 39.132812 82.796875 39.1875 80.742188 39.242188 78.691406 " fill-opacity="1" fill-rule="nonzero"/></g></g></g><g clip-path="url(#ef47626372)"><g clip-path="url(#6e43ba8425)"><g clip-path="url(#ef137f36bc)"><path fill="#ffffff" d="M 26.386719 83.546875 C 57.433594 89.152344 89.015625 75.195312 120.0625 80.796875 C 119.890625 87.070312 119.71875 93.347656 119.546875 99.621094 C 88.5 94.015625 56.917969 107.972656 25.871094 102.371094 C 26.042969 96.097656 26.214844 89.820312 26.386719 83.546875 " fill-opacity="1" fill-rule="nonzero"/></g></g></g><g clip-path="url(#be12a43d6c)"><path fill="#000000" d="M 35.789062 90.898438 L 36.105469 90.898438 L 36.105469 91.53125 L 36.417969 91.53125 L 36.417969 92.789062 L 36.730469 92.789062 L 36.730469 93.414062 L 37.046875 93.414062 L 37.046875 94.046875 L 37.359375 94.046875 L 37.359375 94.359375 L 37.675781 94.359375 L 37.675781 94.671875 L 38.308594 94.671875 L 38.308594 94.988281 L 38.9375 94.988281 L 38.9375 95.300781 L 39.566406 95.300781 L 39.566406 95.617188 L 40.824219 95.617188 L 40.824219 95.929688 L 40.195312 95.929688 L 40.195312 96.242188 L 39.25 96.242188 L 39.25 96.558594 L 38.308594 96.558594 L 38.308594 96.871094 L 37.992188 96.871094 L 37.992188 97.183594 L 37.363281 97.183594 L 37.363281 97.816406 L 37.050781 97.816406 L 37.050781 98.136719 L 36.734375 98.136719 L 36.734375 99.078125 L 36.421875 99.078125 L 36.421875 100.023438 L 36.109375 100.023438 L 36.109375 100.648438 L 35.792969 100.648438 L 35.792969 99.394531 L 35.480469 99.394531 L 35.480469 98.527344 L 35.167969 98.527344 L 35.167969 98.136719 L 34.851562 98.136719 L 34.851562 97.503906 L 34.539062 97.503906 L 34.539062 97.191406 L 34.222656 97.191406 L 34.222656 96.878906 L 33.589844 96.878906 L 33.589844 96.5625 L 32.960938 96.5625 L 32.960938 96.25 L 31.703125 96.25 L 31.703125 95.933594 L 31.074219 95.933594 L 31.074219 95.621094 L 32.332031 95.621094 L 32.332031 95.308594 L 33.273438 95.308594 L 33.273438 94.992188 L 33.90625 94.992188 L 33.90625 94.679688 L 34.21875 94.679688 L 34.21875 94.367188 L 34.53125 94.367188 L 34.53125 94.050781 L 34.847656 94.050781 L 34.847656 93.738281 L 35.160156 93.738281 L 35.160156 93.109375 L 35.472656 93.109375 L 35.472656 92.15625 L 35.789062 92.15625 Z M 35.789062 90.898438 " fill-opacity="1" fill-rule="nonzero"/></g><g fill="#000000" fill-opacity="1"><g transform="translate(39.542382, 101.19509)"><g><path d="M -1.28125 -11.578125 L 6.84375 -12.6875 L 7.09375 -9.859375 L 4.796875 -9.453125 L 5.640625 -1.03125 L 2.640625 -0.3125 L 1.53125 -9.015625 L -0.890625 -8.796875 Z M -1.28125 -11.578125 "/></g></g></g><g fill="#000000" fill-opacity="1"><g transform="translate(48.203204, 100.021508)"><g><path d="M -1.0625 -11.46875 L 2.0625 -11.953125 L 3.09375 -0.6875 L 0.296875 -0.015625 Z M -1.0625 -11.46875 "/></g></g></g><g fill="#000000" fill-opacity="1"><g transform="translate(51.965947, 99.533448)"><g><path d="M 7.03125 -7.59375 L 7.890625 -6.140625 L 8.296875 -1.84375 L 7.484375 -0.921875 L 0.84375 -0.09375 L 0.171875 -1.1875 L 0.109375 -4.015625 L 2.609375 -4.28125 L 2.953125 -3.03125 L 5.171875 -3.328125 L 5.046875 -5.15625 L 0.5 -5.15625 L -0.234375 -5.828125 L -0.71875 -10.703125 L -0.234375 -11.4375 L 5.046875 -12.3125 L 6.984375 -12 L 7.421875 -9.265625 L 6.9375 -8.75 L 4.9375 -8.421875 L 4.421875 -9.53125 L 2.53125 -9.15625 L 2.5625 -7.484375 Z M 7.03125 -7.59375 "/></g></g></g><g fill="#000000" fill-opacity="1"><g transform="translate(60.688809, 98.529565)"><g><path d="M 4.53125 -12.21875 L 7.671875 -12.28125 L 8.46875 -0.859375 L 5.375 -0.6875 L 5.046875 -5.046875 L 3.03125 -4.90625 L 3.296875 -0.578125 L 0.296875 -0.09375 L -0.78125 -11.65625 L 2.59375 -12 L 2.875 -7.65625 L 4.859375 -7.765625 Z M 4.53125 -12.21875 "/></g></g></g><g fill="#000000" fill-opacity="1"><g transform="translate(69.71587, 97.633461)"><g><path d="M 7.671875 -11.03125 L 8.75 -0.765625 L 5.734375 -0.453125 L 5.34375 -4.0625 L 3.046875 -3.71875 L 3.09375 -0.3125 L 0.296875 -0.015625 L -0.140625 -10.734375 L 0.359375 -11.453125 L 6.671875 -12.25 Z M 5.140625 -6.28125 L 4.84375 -9.171875 L 2.921875 -8.828125 L 2.984375 -6.25 Z M 5.140625 -6.28125 "/></g></g></g><g fill="#000000" fill-opacity="1"><g transform="translate(78.698966, 96.884742)"><g><path d="M -0.484375 -11.625 L 7.703125 -12.1875 L 7.75 -9.34375 L 5.4375 -9.09375 L 5.6875 -0.640625 L 2.671875 -0.140625 L 2.15625 -8.890625 L -0.28125 -8.828125 Z M -0.484375 -11.625 "/></g></g></g><g fill="#000000" fill-opacity="1"><g transform="translate(87.402096, 96.292696)"><g><path d="M 7.46875 -7.140625 L 8.25 -5.65625 L 8.390625 -1.3125 L 7.515625 -0.453125 L 0.84375 -0.046875 L 0.234375 -1.171875 L 0.359375 -4.015625 L 2.875 -4.125 L 3.140625 -2.84375 L 5.375 -3.015625 L 5.359375 -4.84375 L 0.8125 -5.125 L 0.109375 -5.8125 L -0.0625 -10.71875 L 0.46875 -11.4375 L 5.796875 -11.984375 L 7.703125 -11.546875 L 7.984375 -8.78125 L 7.453125 -8.296875 L 5.4375 -8.09375 L 5.015625 -9.234375 L 3.078125 -8.984375 L 3.015625 -7.296875 Z M 7.46875 -7.140625 "/></g></g></g><g fill="#000000" fill-opacity="1"><g transform="translate(96.171202, 95.829861)"><g><path d="M 5.625 -11.828125 L 8.140625 -11.984375 L 8.390625 -1.40625 L 7.890625 -0.359375 L 1.4375 -0.0625 L 0.453125 -0.578125 L -0.140625 -11.71875 L 2.359375 -11.8125 L 2.9375 -11.3125 L 3.421875 -2.90625 L 5.34375 -2.859375 L 5.125 -11.25 Z M 5.625 -11.828125 "/></g></g></g><g clip-path="url(#166fe03ea9)"><g clip-path="url(#3c041db459)"><g clip-path="url(#ccc166a183)"><g clip-path="url(#2c54783f5b)"><path fill="#000000" d="M 109.96875 84.96875 L 110.28125 84.945312 L 110.328125 85.574219 L 110.640625 85.550781 L 110.734375 86.804688 L 111.046875 86.785156 L 111.09375 87.410156 L 111.40625 87.386719 L 111.449219 88.015625 L 111.765625 87.992188 L 111.785156 88.304688 L 112.101562 88.28125 L 112.125 88.59375 L 112.753906 88.550781 L 112.777344 88.863281 L 113.40625 88.816406 L 113.429688 89.128906 L 114.058594 89.082031 L 114.082031 89.398438 L 115.332031 89.304688 L 115.355469 89.617188 L 114.726562 89.664062 L 114.75 89.976562 L 113.808594 90.046875 L 113.832031 90.359375 L 112.894531 90.429688 L 112.914062 90.742188 L 112.601562 90.765625 L 112.625 91.078125 L 111.996094 91.121094 L 112.042969 91.75 L 111.730469 91.773438 L 111.753906 92.09375 L 111.441406 92.117188 L 111.507812 93.058594 L 111.195312 93.082031 L 111.265625 94.019531 L 110.953125 94.042969 L 110.996094 94.671875 L 110.683594 94.695312 L 110.59375 93.4375 L 110.28125 93.460938 L 110.214844 92.597656 L 109.902344 92.621094 L 109.875 92.230469 L 109.5625 92.253906 L 109.515625 91.625 L 109.203125 91.648438 L 109.179688 91.335938 L 108.867188 91.359375 L 108.84375 91.046875 L 108.210938 91.089844 L 108.1875 90.777344 L 107.5625 90.824219 L 107.539062 90.511719 L 106.285156 90.601562 L 106.261719 90.289062 L 105.632812 90.335938 L 105.609375 90.023438 L 106.863281 89.929688 L 106.839844 89.617188 L 107.78125 89.546875 L 107.757812 89.234375 L 108.386719 89.191406 L 108.363281 88.875 L 108.675781 88.855469 L 108.65625 88.539062 L 108.96875 88.519531 L 108.945312 88.203125 L 109.257812 88.179688 L 109.234375 87.867188 L 109.546875 87.84375 L 109.5 87.21875 L 109.816406 87.195312 L 109.746094 86.246094 L 110.058594 86.222656 Z M 109.96875 84.96875 " fill-opacity="1" fill-rule="nonzero"/></g></g></g></g></svg>